<?xml version="1.0" encoding="UTF-8" standalone="no"?>
<!-- Created with Inkscape (http://www.inkscape.org/) -->

<svg
   xmlns:dc="http://purl.org/dc/elements/1.1/"
   xmlns:cc="http://creativecommons.org/ns#"
   xmlns:rdf="http://www.w3.org/1999/02/22-rdf-syntax-ns#"
   xmlns:svg="http://www.w3.org/2000/svg"
   xmlns="http://www.w3.org/2000/svg"
   xmlns:xlink="http://www.w3.org/1999/xlink"
   xmlns:sodipodi="http://sodipodi.sourceforge.net/DTD/sodipodi-0.dtd"
   xmlns:inkscape="http://www.inkscape.org/namespaces/inkscape"
   width="64px"
   height="64px"
   id="svg3347"
   sodipodi:version="0.32"
   inkscape:version="0.48.4 r9939"
   sodipodi:docname="Cal.svg"
   inkscape:output_extension="org.inkscape.output.svg.inkscape"
   version="1.1">
  <defs
     id="defs3349">
    <linearGradient
       inkscape:collect="always"
       id="linearGradient5832">
      <stop
         style="stop-color:#000000;stop-opacity:1;"
         offset="0"
         id="stop5834" />
      <stop
         style="stop-color:#000000;stop-opacity:0;"
         offset="1"
         id="stop5836" />
    </linearGradient>
    <linearGradient
       inkscape:collect="always"
       xlink:href="#linearGradient3935"
       id="linearGradient3961"
       x1="35.073051"
       y1="-26.204216"
       x2="55.073051"
       y2="-26.204216"
       gradientUnits="userSpaceOnUse"
       gradientTransform="matrix(0,1,-1,0,5.7957838,8.9269487)" />
    <linearGradient
       id="linearGradient3935">
      <stop
         id="stop3937"
         offset="0"
         style="stop-color:#f5f5f5;stop-opacity:1;" />
      <stop
         id="stop3939"
         offset="1"
         style="stop-color:#e6e6e6;stop-opacity:1;" />
    </linearGradient>
    <linearGradient
       id="linearGradient4569">
      <stop
         id="stop4571"
         offset="0"
         style="stop-color:#ffffff;stop-opacity:1;" />
      <stop
         id="stop4573"
         offset="1"
         style="stop-color:#ffffff;stop-opacity:0.75539571;" />
    </linearGradient>
    <linearGradient
       id="linearGradient3816">
      <stop
         id="stop3818"
         offset="0"
         style="stop-color:#e5f5d9;stop-opacity:1;" />
      <stop
         id="stop3820"
         offset="1"
         style="stop-color:#ffffff;stop-opacity:1;" />
    </linearGradient>
    <linearGradient
       id="linearGradient3816-3">
      <stop
         style="stop-color:#e5f5d9;stop-opacity:1;"
         offset="0"
         id="stop3818-8" />
      <stop
         style="stop-color:#ffffff;stop-opacity:1;"
         offset="1"
         id="stop3820-2" />
    </linearGradient>
    <linearGradient
       id="linearGradient4508">
      <stop
         style="stop-color:#e5f5d9;stop-opacity:1;"
         offset="0"
         id="stop4510" />
      <stop
         style="stop-color:#ffffff;stop-opacity:1;"
         offset="1"
         id="stop4512" />
    </linearGradient>
    <linearGradient
       id="linearGradient6691">
      <stop
         id="stop6693"
         offset="0"
         style="stop-color:#68a0ed;stop-opacity:1;" />
      <stop
         id="stop6695"
         offset="1"
         style="stop-color:#2572cd;stop-opacity:0;" />
    </linearGradient>
    <linearGradient
       id="linearGradient6679">
      <stop
         id="stop6681"
         offset="0"
         style="stop-color:#000000;stop-opacity:1;" />
      <stop
         style="stop-color:#002251;stop-opacity:1;"
         offset="0.5"
         id="stop6703" />
      <stop
         id="stop6683"
         offset="1"
         style="stop-color:#0060e7;stop-opacity:1;" />
    </linearGradient>
    <linearGradient
       id="linearGradient6560">
      <stop
         style="stop-color:#171818;stop-opacity:1;"
         offset="0"
         id="stop6562" />
      <stop
         id="stop6566"
         offset="0.5"
         style="stop-color:#1d1d1d;stop-opacity:1;" />
      <stop
         style="stop-color:#181818;stop-opacity:1;"
         offset="1"
         id="stop6568" />
    </linearGradient>
    <filter
       color-interpolation-filters="sRGB"
       id="filter6611"
       inkscape:collect="always">
      <feGaussianBlur
         id="feGaussianBlur6613"
         stdDeviation="2.0883534"
         inkscape:collect="always" />
    </filter>
    <linearGradient
       id="linearGradient4007-5">
      <stop
         style="stop-color:#313232;stop-opacity:1;"
         offset="0"
         id="stop4009-2" />
      <stop
         style="stop-color:#29292b;stop-opacity:1;"
         offset="1"
         id="stop4011-7" />
    </linearGradient>
    <filter
       color-interpolation-filters="sRGB"
       id="filter6640"
       inkscape:collect="always">
      <feGaussianBlur
         id="feGaussianBlur6642"
         stdDeviation="2.7309237"
         inkscape:collect="always" />
    </filter>
    <linearGradient
       id="linearGradient5260">
      <stop
         style="stop-color:#313232;stop-opacity:1;"
         offset="0"
         id="stop5262" />
      <stop
         style="stop-color:#29292b;stop-opacity:1;"
         offset="1"
         id="stop5264" />
    </linearGradient>
    <filter
       color-interpolation-filters="sRGB"
       id="filter6669"
       inkscape:collect="always">
      <feGaussianBlur
         id="feGaussianBlur6671"
         stdDeviation="2.4096386"
         inkscape:collect="always" />
    </filter>
    <linearGradient
       id="linearGradient5269">
      <stop
         style="stop-color:#313232;stop-opacity:1;"
         offset="0"
         id="stop5271" />
      <stop
         style="stop-color:#29292b;stop-opacity:1;"
         offset="1"
         id="stop5273" />
    </linearGradient>
    <linearGradient
       id="linearGradient4601">
      <stop
         id="stop4603"
         offset="0"
         style="stop-color:#171818;stop-opacity:1;" />
      <stop
         style="stop-color:#232424;stop-opacity:1;"
         offset="0.25"
         id="stop6558" />
      <stop
         style="stop-color:#303030;stop-opacity:1;"
         offset="0.5"
         id="stop4607" />
      <stop
         id="stop4605"
         offset="1"
         style="stop-color:#181818;stop-opacity:1;" />
    </linearGradient>
    <linearGradient
       id="linearGradient6228">
      <stop
         id="stop6230"
         offset="0"
         style="stop-color:#8a8a8a;stop-opacity:1;" />
      <stop
         style="stop-color:#e5e5e5;stop-opacity:1;"
         offset="0.5"
         id="stop6236" />
      <stop
         id="stop6232"
         offset="1"
         style="stop-color:#696969;stop-opacity:1;" />
    </linearGradient>
    <linearGradient
       id="linearGradient4015">
      <stop
         id="stop4017"
         offset="0"
         style="stop-color:#2e2e2e;stop-opacity:1;" />
      <stop
         id="stop4019"
         offset="1"
         style="stop-color:#111111;stop-opacity:1;" />
    </linearGradient>
    <linearGradient
       id="linearGradient5291">
      <stop
         id="stop5293"
         offset="0"
         style="stop-color:#8a8a8a;stop-opacity:1;" />
      <stop
         style="stop-color:#e5e5e5;stop-opacity:1;"
         offset="0.5"
         id="stop5295" />
      <stop
         id="stop5297"
         offset="1"
         style="stop-color:#696969;stop-opacity:1;" />
    </linearGradient>
    <linearGradient
       id="linearGradient5300">
      <stop
         id="stop5302"
         offset="0"
         style="stop-color:#8a8a8a;stop-opacity:1;" />
      <stop
         style="stop-color:#e5e5e5;stop-opacity:1;"
         offset="0.5"
         id="stop5304" />
      <stop
         id="stop5306"
         offset="1"
         style="stop-color:#696969;stop-opacity:1;" />
    </linearGradient>
    <linearGradient
       id="linearGradient5309">
      <stop
         id="stop5311"
         offset="0"
         style="stop-color:#8a8a8a;stop-opacity:1;" />
      <stop
         style="stop-color:#e5e5e5;stop-opacity:1;"
         offset="0.5"
         id="stop5313" />
      <stop
         id="stop5315"
         offset="1"
         style="stop-color:#696969;stop-opacity:1;" />
    </linearGradient>
    <linearGradient
       id="linearGradient5318">
      <stop
         id="stop5320"
         offset="0"
         style="stop-color:#8a8a8a;stop-opacity:1;" />
      <stop
         style="stop-color:#e5e5e5;stop-opacity:1;"
         offset="0.5"
         id="stop5322" />
      <stop
         id="stop5324"
         offset="1"
         style="stop-color:#696969;stop-opacity:1;" />
    </linearGradient>
    <linearGradient
       inkscape:collect="always"
       xlink:href="#linearGradient6228"
       id="linearGradient5559"
       gradientUnits="userSpaceOnUse"
       x1="88.284271"
       y1="31.715727"
       x2="31.715727"
       y2="88.284271" />
    <linearGradient
       inkscape:collect="always"
       xlink:href="#linearGradient6228"
       id="linearGradient5561"
       gradientUnits="userSpaceOnUse"
       x1="88.284271"
       y1="31.715727"
       x2="31.715727"
       y2="88.284271" />
    <linearGradient
       inkscape:collect="always"
       xlink:href="#linearGradient6228"
       id="linearGradient5563"
       gradientUnits="userSpaceOnUse"
       x1="88.284271"
       y1="31.715727"
       x2="31.715727"
       y2="88.284271" />
    <linearGradient
       inkscape:collect="always"
       xlink:href="#linearGradient6228"
       id="linearGradient5565"
       gradientUnits="userSpaceOnUse"
       x1="88.284271"
       y1="31.715727"
       x2="31.715727"
       y2="88.284271" />
    <linearGradient
       inkscape:collect="always"
       xlink:href="#linearGradient4015"
       id="linearGradient5567"
       gradientUnits="userSpaceOnUse"
       x1="20"
       y1="60"
       x2="100"
       y2="60" />
    <linearGradient
       inkscape:collect="always"
       xlink:href="#linearGradient6228"
       id="linearGradient5569"
       gradientUnits="userSpaceOnUse"
       x1="88.284271"
       y1="31.715727"
       x2="31.715727"
       y2="88.284271" />
    <linearGradient
       inkscape:collect="always"
       xlink:href="#linearGradient4601"
       id="linearGradient5571"
       gradientUnits="userSpaceOnUse"
       gradientTransform="matrix(-0.10556948,0.10556948,-0.10556948,-0.10556948,29.695186,33.535257)"
       x1="20"
       y1="60"
       x2="100"
       y2="60" />
    <linearGradient
       inkscape:collect="always"
       xlink:href="#linearGradient4007-5"
       id="linearGradient5573"
       gradientUnits="userSpaceOnUse"
       x1="20"
       y1="60"
       x2="100"
       y2="60" />
    <linearGradient
       inkscape:collect="always"
       xlink:href="#linearGradient4007-5"
       id="linearGradient5575"
       gradientUnits="userSpaceOnUse"
       gradientTransform="matrix(0.06181918,0.06181918,0.06181918,-0.06181918,9.608548,33.535257)"
       x1="20"
       y1="60"
       x2="100"
       y2="60" />
    <linearGradient
       inkscape:collect="always"
       xlink:href="#linearGradient4007-5"
       id="linearGradient5577"
       gradientUnits="userSpaceOnUse"
       gradientTransform="matrix(0.08029436,0.08029436,0.08029436,-0.08029436,7.3915258,33.535257)"
       x1="20"
       y1="60"
       x2="100"
       y2="60" />
    <linearGradient
       inkscape:collect="always"
       xlink:href="#linearGradient6560"
       id="linearGradient5579"
       gradientUnits="userSpaceOnUse"
       gradientTransform="matrix(0.10013808,0.10013808,0.10013808,-0.10013808,5.0102797,33.535257)"
       x1="20"
       y1="60"
       x2="100"
       y2="60" />
    <radialGradient
       inkscape:collect="always"
       xlink:href="#linearGradient6679"
       id="radialGradient5581"
       gradientUnits="userSpaceOnUse"
       gradientTransform="matrix(2.6657869,2.6657869,-1.1104681,1.1104679,-33.319129,-166.5753)"
       cx="60"
       cy="60"
       fx="60"
       fy="60"
       r="40" />
    <linearGradient
       inkscape:collect="always"
       xlink:href="#linearGradient6691"
       id="linearGradient5583"
       gradientUnits="userSpaceOnUse"
       x1="20"
       y1="60"
       x2="89.568054"
       y2="60" />
    <linearGradient
       gradientUnits="userSpaceOnUse"
       y2="19.5"
       x2="30"
       y1="2"
       x1="30"
       id="linearGradient4676"
       xlink:href="#linearGradient3951"
       inkscape:collect="always"
       gradientTransform="translate(42.768497,983.79893)" />
    <linearGradient
       id="linearGradient3951">
      <stop
         id="stop3953"
         offset="0"
         style="stop-color:#ff561e;stop-opacity:1;" />
      <stop
         id="stop3955"
         offset="1"
         style="stop-color:#df1d3d;stop-opacity:1;" />
    </linearGradient>
    <linearGradient
       y2="19.5"
       x2="30"
       y1="2"
       x1="30"
       gradientTransform="translate(-5.2957835,-8.4269688)"
       gradientUnits="userSpaceOnUse"
       id="linearGradient5793"
       xlink:href="#linearGradient3951"
       inkscape:collect="always" />
    <linearGradient
       inkscape:collect="always"
       xlink:href="#linearGradient3951"
       id="linearGradient5817"
       gradientUnits="userSpaceOnUse"
       gradientTransform="matrix(0,1,-1,0,5.7957838,8.9269487)"
       x1="-8.9269485"
       y1="-26.204216"
       x2="10.204316"
       y2="-26.204216" />
    <linearGradient
       inkscape:collect="always"
       xlink:href="#linearGradient5832"
       id="linearGradient5838"
       x1="10.689245"
       y1="28.739235"
       x2="43.517549"
       y2="28.739235"
       gradientUnits="userSpaceOnUse" />
    <linearGradient
       inkscape:collect="always"
       xlink:href="#linearGradient5832"
       id="linearGradient5840"
       gradientUnits="userSpaceOnUse"
       x1="10.689245"
       y1="28.739235"
       x2="10.689245"
       y2="2.8527277"
       gradientTransform="matrix(1.0421153,0,0,1.0421153,3.7651794,9.0271289)" />
    <linearGradient
       inkscape:collect="always"
       xlink:href="#linearGradient5832"
       id="linearGradient5843"
       gradientUnits="userSpaceOnUse"
       gradientTransform="matrix(1.0421153,0,0,1.0421153,3.7651794,9.0271289)"
       x1="10.689245"
       y1="34.519089"
       x2="10.689245"
       y2="2.8527277" />
  </defs>
  <sodipodi:namedview
     id="base"
     pagecolor="#ffffff"
     bordercolor="#666666"
     borderopacity="1.0"
     inkscape:pageopacity="0.0"
     inkscape:pageshadow="2"
     inkscape:zoom="10.475"
     inkscape:cx="34.985472"
     inkscape:cy="33.028474"
     inkscape:current-layer="g3443"
     showgrid="false"
     inkscape:document-units="px"
     inkscape:grid-bbox="true"
     inkscape:window-width="1280"
     inkscape:window-height="961"
     inkscape:window-x="-8"
     inkscape:window-y="32"
     inkscape:window-maximized="1"
     showguides="false"
     inkscape:guide-bbox="true">
    <inkscape:grid
       type="xygrid"
       id="grid3778"
       empspacing="5"
       visible="true"
       enabled="true"
       snapvisiblegridlinesonly="true" />
    <sodipodi:guide
       orientation="-0.70710678,0.70710678"
       position="58,58"
       id="guide3004" />
    <sodipodi:guide
       orientation="0,1"
       position="49,32"
       id="guide3006" />
    <sodipodi:guide
       orientation="0.70710678,0.70710678"
       position="32,32"
       id="guide3010" />
    <sodipodi:guide
       orientation="1,0"
       position="32,32"
       id="guide3012" />
    <sodipodi:guide
       orientation="1,0"
       position="15,32"
       id="guide4190" />
    <sodipodi:guide
       orientation="0,1"
       position="35,49"
       id="guide4192" />
    <sodipodi:guide
       orientation="1,0"
       position="49,32"
       id="guide4194" />
    <sodipodi:guide
       orientation="0,1"
       position="32,15"
       id="guide4196" />
  </sodipodi:namedview>
  <metadata
     id="metadata3352">
    <rdf:RDF>
      <cc:Work
         rdf:about="">
        <dc:format>image/svg+xml</dc:format>
        <dc:type
           rdf:resource="http://purl.org/dc/dcmitype/StillImage" />
        <dc:title></dc:title>
      </cc:Work>
    </rdf:RDF>
  </metadata>
  <g
     id="layer1"
     inkscape:label="Layer 1"
     inkscape:groupmode="layer">
    <g
       id="g3443"
       inkscape:label="Layer 1"
       transform="translate(5.7957838,8.9269487)">
      <path
         style="fill:url(#linearGradient3961);fill-opacity:1;stroke:none"
         d="M 64 19 L 0 19 L 0 49 C 0 57.31 6.69 64 15 64 L 49 64 C 57.31 64 64 57.31 64 49 L 64 19 z "
         id="path5813"
         transform="translate(-5.7957838,-8.9269487)" />
      <path
         style="fill:url(#linearGradient5817);fill-opacity:1;stroke:none"
         d="M 0 15 L 0 19 L 64 19 L 64 15 C 64 6.69 57.31 8.7493082e-017 49 0 L 15 0 C 6.69 0 8.7493082e-017 6.69 0 15 z "
         id="rect2383"
         transform="translate(-5.7957838,-8.9269487)" />
      <g
         style="font-size:9.95732975px;font-style:normal;font-variant:normal;font-weight:200;font-stretch:normal;text-align:start;line-height:125%;letter-spacing:0px;word-spacing:0px;writing-mode:lr-tb;text-anchor:start;fill:#ffffff;fill-opacity:1;stroke:none;font-family:HelveticaNeueLT Com 35 Th;-inkscape-font-specification:HelveticaNeueLT Com 35 Th Ultra-Light"
         id="text5819">
        <path
           d="m 14.053169,3.7769675 0.01975,0 2.459553,-6.7311039 0.438185,0 -2.65859,7.1094265 -0.507772,0 -2.648866,-7.1094265 0.458241,0 z"
           style=""
           id="path5859" />
        <path
           d="m 17.484813,-1.928563 0,-1.0255734 0.378323,0 0,1.0255734 z m 0,6.0838531 0,-5.11814283 0.378323,0 0,5.11814283 z"
           style=""
           id="path5861" />
        <path
           d="m 22.970947,1.3174147 c -0.0067,-0.2655824 -0.05318,-0.52448247 -0.139478,-0.77670091 -0.0863,-0.25221121 -0.20912,-0.47292451 -0.368447,-0.66214055 -0.159335,-0.18920749 -0.35351,-0.34190381 -0.582525,-0.45808943 -0.229023,-0.11617615 -0.489493,-0.1742666 -0.781411,-0.17427151 -0.285441,4.91e-6 -0.539378,0.0597667 -0.761811,0.17928542 -0.222437,0.11952822 -0.413321,0.27718781 -0.57265,0.47297924 -0.159332,0.19579994 -0.28544,0.41818454 -0.378323,0.66715447 -0.09288,0.2489771 -0.149253,0.49957127 -0.169105,0.75178327 z m -3.75375,0.3284873 c -0.0067,0.2988113 0.02811,0.5876428 0.10438,0.8664956 0.07627,0.278856 0.194073,0.5244869 0.353405,0.7368934 0.15933,0.2124084 0.356847,0.3816658 0.592554,0.5077728 0.235702,0.1261078 0.512885,0.1891615 0.83155,0.1891613 0.484574,2e-7 0.887814,-0.1344131 1.20972,-0.4032403 0.3219,-0.2688259 0.529344,-0.6422862 0.622334,-1.1203819 l 0.378322,0 C 23.20999,3.0267047 22.969373,3.4864144 22.58761,3.8017332 22.20584,4.1170527 21.709666,4.2747123 21.099086,4.2747124 20.727345,4.2747123 20.398756,4.2066954 20.11332,4.0706613 19.82788,3.9346275 19.590555,3.7487583 19.401344,3.5130533 19.212131,3.2773496 19.069412,3.0018378 18.973186,2.6865171 18.876959,2.3711994 18.832087,2.0376985 18.83857,1.6860133 c -0.0065,-0.3518827 0.03505,-0.69379084 0.124588,-1.02572525 0.08954,-0.33192743 0.228918,-0.6273429 0.41813,-0.88624732 0.189211,-0.25889566 0.426536,-0.46633982 0.711976,-0.62233311 0.285437,-0.15598332 0.62071,-0.23397742 1.005822,-0.23398262 0.398274,5.2e-6 0.743423,0.073036 1.035449,0.21909281 0.292019,0.14606678 0.530964,0.34353377 0.716838,0.59240156 0.185865,0.24887665 0.320328,0.53927822 0.403392,0.87120558 0.08305,0.33193447 0.114555,0.68042645 0.09451,1.04547705 z"
           style=""
           id="path5863" />
        <path
           d="m 24.619157,0.172419 0.02978,0 c 0.04659,-0.16591083 0.132943,-0.32189912 0.259052,-0.46796532 0.126106,-0.14605731 0.27546,-0.27221537 0.448062,-0.37847456 0.172598,-0.10624953 0.366773,-0.18758628 0.582525,-0.24401049 0.215748,-0.0564141 0.439804,-0.081281 0.672169,-0.074601 l 0,0.37832262 c -0.199141,-0.0265335 -0.426489,-0.00663 -0.682045,0.0597112 -0.255559,0.0663504 -0.499519,0.21246278 -0.731879,0.43833765 -0.09299,0.09947213 -0.174324,0.19569867 -0.244011,0.28867991 -0.06969,0.0929892 -0.12778,0.19590096 -0.174271,0.30873557 -0.04649,0.11284195 -0.08301,0.23894936 -0.109546,0.37832262 -0.02654,0.13937984 -0.04315,0.30529461 -0.04984,0.49774491 l 0,2.798068 -0.378322,0 0,-5.11814283 0.378322,0 z"
           style=""
           id="path5865" />
        <path
           d="m 27.002438,-0.96285273 0.378323,0 0,1.09546429 0.02005,0 c 0.06624,-0.19265164 0.160799,-0.36363101 0.283666,-0.51293862 0.122865,-0.14929853 0.265584,-0.27707725 0.428158,-0.38333653 0.162571,-0.10624944 0.340134,-0.18591488 0.532691,-0.23899661 0.192552,-0.053071 0.388398,-0.07961 0.587539,-0.079615 0.298806,5.2e-6 0.552743,0.036521 0.761811,0.10954638 0.209061,0.073036 0.37999,0.1693132 0.512787,0.28883185 0.132788,0.11952833 0.237321,0.25394161 0.313597,0.40324025 0.07627,0.14930751 0.131016,0.30028189 0.164244,0.45292358 0.03322,0.15264967 0.05317,0.30033208 0.05986,0.4430477 0.0067,0.14272269 0.01002,0.26726009 0.01003,0.37361257 l 0,3.16636277 -0.378626,0 0,-3.23625369 c -5e-6,-0.1326881 -0.0099,-0.29363965 -0.02978,-0.48285513 -0.01986,-0.18920805 -0.0779,-0.3717346 -0.17412,-0.54758021 -0.09623,-0.17583707 -0.242292,-0.3268621 -0.438185,-0.45307552 -0.195901,-0.12620399 -0.466449,-0.18930834 -0.811647,-0.18931325 -0.285441,4.91e-6 -0.54267,0.0531321 -0.771687,0.1593817 -0.229021,0.10625911 -0.423196,0.25399217 -0.582525,0.44319963 C 27.709297,0.0380097 27.588153,0.26368626 27.505197,0.52582398 27.422238,0.78796897 27.38076,1.0750279 27.380761,1.3870017 l 0,2.7682884 -0.378323,0 z"
           style=""
           id="path5867" />
        <path
           d="m 36.078838,1.3174147 c -0.0067,-0.2655824 -0.05318,-0.52448247 -0.139478,-0.77670091 -0.08631,-0.25221121 -0.20912,-0.47292451 -0.368447,-0.66214055 -0.159335,-0.18920749 -0.35351,-0.34190381 -0.582526,-0.45808943 -0.229022,-0.11617615 -0.489492,-0.1742666 -0.781411,-0.17427151 -0.285441,4.91e-6 -0.539377,0.0597667 -0.761811,0.17928542 -0.222437,0.11952822 -0.41332,0.27718781 -0.57265,0.47297924 C 32.713183,0.0942769 32.587076,0.3166615 32.494193,0.56563143 32.401308,0.81460853 32.34494,1.0652027 32.325087,1.3174147 z M 32.325087,1.645902 c -0.0067,0.2988113 0.02811,0.5876428 0.104381,0.8664956 0.07627,0.278856 0.194073,0.5244869 0.353405,0.7368934 0.159329,0.2124084 0.356847,0.3816658 0.592553,0.5077728 0.235703,0.1261078 0.512886,0.1891615 0.83155,0.1891613 0.484574,2e-7 0.887814,-0.1344131 1.209721,-0.4032403 0.321899,-0.2688259 0.529344,-0.6422862 0.622333,-1.1203819 l 0.378323,0 c -0.09947,0.6041018 -0.34009,1.0638115 -0.721852,1.3791303 -0.38177,0.3153195 -0.877945,0.4729791 -1.488525,0.4729792 -0.371741,-1e-7 -0.700329,-0.068017 -0.985766,-0.2040511 C 32.93577,3.9346275 32.698445,3.7487583 32.509235,3.5130533 32.320022,3.2773496 32.177303,3.0018378 32.081077,2.6865171 31.98485,2.3711994 31.939978,2.0376985 31.946461,1.6860133 c -0.0065,-0.3518827 0.03505,-0.69379084 0.124588,-1.02572525 0.08954,-0.33192743 0.228917,-0.6273429 0.41813,-0.88624732 0.189211,-0.25889566 0.426536,-0.46633982 0.711976,-0.62233311 0.285436,-0.15598332 0.62071,-0.23397742 1.005821,-0.23398262 0.398274,5.2e-6 0.743424,0.073036 1.03545,0.21909281 0.292018,0.14606678 0.530964,0.34353377 0.716837,0.59240156 0.185865,0.24887665 0.320329,0.53927822 0.403393,0.87120558 0.08305,0.33193447 0.114555,0.68042645 0.0945,1.04547705 z"
           style=""
           id="path5869" />
        <path
           d="m 37.52801,2.4526864 c 0.01317,0.2388461 0.06624,0.4495822 0.15923,0.632209 0.09298,0.1826289 0.214128,0.3386679 0.363433,0.4681173 0.149302,0.1294506 0.323573,0.2273484 0.522814,0.2936938 0.199238,0.066346 0.414937,0.099519 0.647099,0.099519 0.166115,2e-7 0.343729,-0.01494 0.532842,-0.044821 0.189108,-0.029881 0.365,-0.084628 0.527677,-0.1642436 0.16267,-0.079614 0.297134,-0.1907814 0.403392,-0.3335013 0.106251,-0.1427184 0.159378,-0.3236749 0.159382,-0.5428702 -4e-6,-0.21899 -0.04979,-0.394882 -0.149354,-0.5276764 C 40.594952,2.2003213 40.462159,2.0941176 40.296147,2.0145007 40.130127,1.934888 39.942587,1.8718343 39.733525,1.8253394 39.524457,1.7788491 39.310378,1.7323565 39.091288,1.6858614 38.872193,1.6393713 38.656443,1.5862441 38.444037,1.5264797 38.231628,1.4667206 38.042467,1.3854345 37.876553,1.2826212 37.710637,1.1798136 37.577845,1.043729 37.478175,0.87436699 37.378504,0.70501156 37.328669,0.49088219 37.328669,0.23197822 c 0,-0.2522109 0.05647,-0.46294702 0.16941,-0.632209 0.112938,-0.16925286 0.257329,-0.30366614 0.433171,-0.40324025 0.175841,-0.0995642 0.373308,-0.17092376 0.592402,-0.21407897 0.219091,-0.043145 0.438133,-0.06472 0.657127,-0.064725 0.272268,5.2e-6 0.522913,0.029886 0.751935,0.0896427 0.229016,0.0597669 0.428154,0.15604408 0.597415,0.28883185 0.169254,0.13279748 0.301996,0.3020549 0.398227,0.50777277 0.09622,0.20572656 0.144335,0.45464943 0.14434,0.74676934 l -0.378323,0 c -4e-6,-0.23235817 -0.03981,-0.43149646 -0.119422,-0.59741548 -0.07962,-0.16591061 -0.185823,-0.30032389 -0.318612,-0.40324025 -0.132796,-0.10290715 -0.292127,-0.17928063 -0.477993,-0.22912068 -0.185872,-0.0498304 -0.385061,-0.074748 -0.597567,-0.0747529 -0.172603,4.91e-6 -0.346823,0.0166166 -0.522663,0.0498353 -0.175843,0.0332283 -0.333503,0.0896475 -0.472979,0.16925759 -0.139479,0.0796195 -0.253989,0.18253124 -0.343529,0.30873557 -0.08954,0.12621308 -0.134313,0.27885876 -0.134312,0.45793749 -10e-7,0.20582743 0.04978,0.37179289 0.149353,0.49789688 0.09957,0.12611084 0.230639,0.22735129 0.393213,0.3037217 0.162571,0.076377 0.345097,0.1378096 0.54758,0.1842993 0.202479,0.046496 0.406631,0.092938 0.612457,0.139326 0.252213,0.046597 0.489538,0.1013952 0.711976,0.1643956 0.222432,0.063006 0.414936,0.1493057 0.577512,0.2589003 0.162568,0.1095994 0.290347,0.2506472 0.383336,0.423144 0.09298,0.1725007 0.139474,0.3915427 0.139478,0.6571266 -4e-6,0.2787544 -0.06306,0.5077736 -0.189161,0.6870582 -0.126112,0.1792859 -0.285442,0.3236763 -0.477993,0.4331718 -0.192558,0.1094959 -0.406637,0.1858187 -0.642237,0.2289688 -0.235606,0.04315 -0.466347,0.064725 -0.692224,0.064725 -0.291923,-1e-7 -0.562371,-0.038136 -0.811342,-0.1144084 C 38.160268,4.0840318 37.942847,3.967851 37.756979,3.811761 37.571109,3.6556718 37.425047,3.4647887 37.318793,3.2391113 37.212538,3.0134356 37.15617,2.7512943 37.149688,2.4526864 z"
           style=""
           id="path5871" />
      </g>
      <g
         style="font-size:32.29026412999999700px;font-style:normal;font-variant:normal;font-weight:200;font-stretch:normal;text-align:start;line-height:125%;letter-spacing:0px;word-spacing:0px;writing-mode:lr-tb;text-anchor:start;fill:url(#linearGradient5838);fill-opacity:1;stroke:none;font-family:HelveticaNeueLT Com 35 Th;-inkscape-font-specification:HelveticaNeueLT Com 35 Th Ultra-Light"
         id="text5823"
         transform="matrix(1.0421153,0,0,1.0421153,-2.0306044,0.10018015)">
        <path
           style="fill-opacity:1;fill:url(#linearGradient5843)"
           d="M 22.8125 27.15625 C 20.523826 27.156274 18.764921 27.841571 17.53125 29.1875 C 16.297572 30.533473 15.603617 32.602087 15.46875 35.40625 L 16.75 35.40625 C 16.749997 34.39646 16.898489 33.457409 17.15625 32.59375 C 17.414004 31.730128 17.796297 30.982857 18.3125 30.34375 C 18.828694 29.704683 19.465084 29.214148 20.25 28.84375 C 21.034904 28.473396 21.945685 28.281272 23 28.28125 C 23.763335 28.281272 24.503559 28.409469 25.1875 28.65625 C 25.871417 28.903075 26.472833 29.25871 27 29.71875 C 27.527139 30.178831 27.935748 30.704682 28.25 31.34375 C 28.564223 31.982856 28.749985 32.714765 28.75 33.5 C 28.749985 34.487231 28.537565 35.351058 28.15625 36.125 C 27.774906 36.898971 27.264416 37.630538 26.625 38.28125 C 25.985557 38.931988 25.276241 39.521765 24.46875 40.09375 C 23.661237 40.665756 22.830428 41.251811 22 41.8125 C 21.147648 42.373208 20.318792 42.956624 19.5 43.5625 C 18.681195 44.16839 17.942925 44.824734 17.28125 45.53125 C 16.619567 46.237777 16.08242 47.011362 15.65625 47.875 C 15.230076 48.738643 14.974029 49.704353 14.90625 50.78125 L 30.375 50.78125 L 30.375 49.5 L 16.53125 49.5 C 16.598338 48.781841 16.834779 48.128137 17.25 47.5 C 17.665215 46.87187 18.193361 46.259499 18.84375 45.6875 C 19.494128 45.11551 20.223398 44.569706 21.03125 44.03125 C 21.839086 43.492808 22.669895 42.935708 23.5 42.375 C 24.330084 41.81431 25.121328 41.230893 25.90625 40.625 C 26.691147 40.019127 27.394102 39.34283 28 38.625 C 28.605869 37.907194 29.0987 37.153563 29.46875 36.3125 C 29.838768 35.471466 29.999983 34.541073 30 33.53125 C 29.999983 32.45437 29.818814 31.514976 29.4375 30.71875 C 29.056154 29.922565 28.556619 29.245925 27.90625 28.71875 C 27.255852 28.19162 26.468674 27.820623 25.59375 27.5625 C 24.7188 27.304423 23.799704 27.156274 22.8125 27.15625 z M 41.53125 27.15625 C 39.242576 27.156274 37.48367 27.841571 36.25 29.1875 C 35.016321 30.533473 34.353616 32.602087 34.21875 35.40625 L 35.5 35.40625 C 35.499997 34.39646 35.617239 33.457409 35.875 32.59375 C 36.132753 31.730128 36.515045 30.982857 37.03125 30.34375 C 37.547444 29.704683 38.215083 29.214148 39 28.84375 C 39.784902 28.473396 40.695685 28.281272 41.75 28.28125 C 42.513335 28.281272 43.222309 28.409469 43.90625 28.65625 C 44.590167 28.903075 45.191583 29.25871 45.71875 29.71875 C 46.245888 30.178831 46.685747 30.704682 47 31.34375 C 47.314223 31.982856 47.468734 32.714765 47.46875 33.5 C 47.468734 34.487231 47.287565 35.351058 46.90625 36.125 C 46.524906 36.898971 46.014417 37.630538 45.375 38.28125 C 44.735558 38.931988 43.99499 39.521765 43.1875 40.09375 C 42.379987 40.665756 41.580428 41.251811 40.75 41.8125 C 39.897647 42.373208 39.037542 42.956624 38.21875 43.5625 C 37.399945 44.16839 36.661675 44.824734 36 45.53125 C 35.338316 46.237777 34.80117 47.011362 34.375 47.875 C 33.948826 48.738643 33.692779 49.704353 33.625 50.78125 L 49.125 50.78125 L 49.125 49.5 L 35.25 49.5 C 35.317089 48.781841 35.553527 48.128137 35.96875 47.5 C 36.383964 46.87187 36.912112 46.259499 37.5625 45.6875 C 38.212878 45.11551 38.942148 44.569706 39.75 44.03125 C 40.557837 43.492808 41.388646 42.935708 42.21875 42.375 C 43.048834 41.81431 43.840078 41.230893 44.625 40.625 C 45.409897 40.019127 46.112853 39.34283 46.71875 38.625 C 47.324619 37.907194 47.81745 37.153563 48.1875 36.3125 C 48.557518 35.471466 48.749984 34.541073 48.75 33.53125 C 48.749984 32.45437 48.568814 31.514976 48.1875 30.71875 C 47.806155 29.922565 47.275369 29.245925 46.625 28.71875 C 45.974602 28.19162 45.218675 27.820623 44.34375 27.5625 C 43.468801 27.304423 42.518454 27.156274 41.53125 27.15625 z "
           transform="matrix(0.95958672,0,0,0.95958672,-3.6130161,-8.6623129)"
           id="path5828" />
      </g>
    </g>
  </g>
</svg>
