<?xml version="1.0" encoding="UTF-8" standalone="no"?>
<!-- Created with Inkscape (http://www.inkscape.org/) -->

<svg
   xmlns:dc="http://purl.org/dc/elements/1.1/"
   xmlns:cc="http://creativecommons.org/ns#"
   xmlns:rdf="http://www.w3.org/1999/02/22-rdf-syntax-ns#"
   xmlns:svg="http://www.w3.org/2000/svg"
   xmlns="http://www.w3.org/2000/svg"
   xmlns:xlink="http://www.w3.org/1999/xlink"
   xmlns:sodipodi="http://sodipodi.sourceforge.net/DTD/sodipodi-0.dtd"
   xmlns:inkscape="http://www.inkscape.org/namespaces/inkscape"
   width="64px"
   height="64px"
   id="svg3347"
   sodipodi:version="0.32"
   inkscape:version="0.48.4 r9939"
   sodipodi:docname="Imagen.svg"
   inkscape:output_extension="org.inkscape.output.svg.inkscape"
   version="1.1">
  <defs
     id="defs3349">
    <linearGradient
       id="linearGradient4630">
      <stop
         style="stop-color:#ffffff;stop-opacity:1;"
         offset="0"
         id="stop4632" />
      <stop
         style="stop-color:#ffffff;stop-opacity:0.78431374;"
         offset="1"
         id="stop4634" />
    </linearGradient>
    <linearGradient
       id="linearGradient3794">
      <stop
         style="stop-color:#6600ff;stop-opacity:1;"
         offset="0"
         id="stop3796" />
      <stop
         style="stop-color:#15a0ff;stop-opacity:1;"
         offset="1"
         id="stop3798" />
    </linearGradient>
    <linearGradient
       inkscape:collect="always"
       xlink:href="#linearGradient3794"
       id="linearGradient3961"
       x1="-5.1262498"
       y1="-26.204216"
       x2="55.073051"
       y2="-26.204216"
       gradientUnits="userSpaceOnUse" />
    <linearGradient
       inkscape:collect="always"
       xlink:href="#linearGradient4630"
       id="linearGradient4636"
       x1="31.975767"
       y1="39.870064"
       x2="31.975767"
       y2="11.978819"
       gradientUnits="userSpaceOnUse" />
  </defs>
  <sodipodi:namedview
     id="base"
     pagecolor="#ffffff"
     bordercolor="#666666"
     borderopacity="1.0"
     inkscape:pageopacity="0.0"
     inkscape:pageshadow="2"
     inkscape:zoom="7.9999999"
     inkscape:cx="34.134189"
     inkscape:cy="36.713545"
     inkscape:current-layer="g3443"
     showgrid="false"
     inkscape:document-units="px"
     inkscape:grid-bbox="true"
     inkscape:window-width="1280"
     inkscape:window-height="961"
     inkscape:window-x="-8"
     inkscape:window-y="-8"
     inkscape:window-maximized="1">
    <inkscape:grid
       type="xygrid"
       id="grid3778"
       empspacing="5"
       visible="true"
       enabled="true"
       snapvisiblegridlinesonly="true" />
  </sodipodi:namedview>
  <metadata
     id="metadata3352">
    <rdf:RDF>
      <cc:Work
         rdf:about="">
        <dc:format>image/svg+xml</dc:format>
        <dc:type
           rdf:resource="http://purl.org/dc/dcmitype/StillImage" />
      </cc:Work>
    </rdf:RDF>
  </metadata>
  <g
     id="layer1"
     inkscape:label="Layer 1"
     inkscape:groupmode="layer">
    <g
       id="g3443"
       inkscape:label="Layer 1"
       transform="translate(5.7957838,8.9269487)">
      <rect
         ry="15"
         y="-58.204216"
         x="-8.9269485"
         height="64"
         width="64"
         id="rect2383"
         style="fill:url(#linearGradient3961);fill-opacity:1;stroke:none"
         transform="matrix(0,1,-1,0,0,0)" />
      <path
         style="fill:url(#linearGradient4636);fill-opacity:1"
         d="M 32 12 C 20.954305 12 12 20.954305 12 32 C 12 43.045695 20.954305 52 32 52 C 43.045695 52 52 43.045695 52 32 C 52 20.954305 43.045695 12 32 12 z M 32 16.09375 C 40.791471 16.09375 47.90625 23.208529 47.90625 32 C 47.90625 40.791471 40.791471 47.90625 32 47.90625 C 23.208529 47.90625 16.09375 40.791471 16.09375 32 C 16.09375 23.208529 23.208529 16.09375 32 16.09375 z M 32 20.78125 C 25.800886 20.78125 20.78125 25.800886 20.78125 32 C 20.78125 38.199114 25.800886 43.21875 32 43.21875 C 37.356586 43.21875 41.818624 39.456922 42.9375 34.4375 L 37.625 34.4375 C 36.680736 36.601 34.511441 38.125 32 38.125 C 28.618665 38.125 25.875 35.381335 25.875 32 C 25.875 28.618665 28.618665 25.875 32 25.875 C 34.422909 25.875 36.507482 27.301851 37.5 29.34375 L 42.90625 29.34375 C 41.710358 24.430574 37.281233 20.78125 32 20.78125 z "
         transform="translate(-5.7957838,-8.9269487)"
         id="circle4024" />
    </g>
  </g>
</svg>
